<svg id="Capa_1" enable-background="new 0 0 485.415 485.415" height="512" viewBox="0 0 485.415 485.415" width="512" xmlns="http://www.w3.org/2000/svg"><g><path d="m179.174 461.589h-31.767c-52.062 0-94.417-42.355-94.417-94.417v-27.922h30v27.923c0 35.52 28.897 64.417 64.417 64.417h31.767z" fill="#688b96"/><path d="m175.943 0c-76.554 0-138.836 62.282-138.836 138.836v51.35h30v-51.35c0-60.012 48.824-108.836 108.836-108.836h66.764l15-14.75-15-15.25z" fill="#688b96"/><path d="m309.471 0h-66.764v30h66.764c60.012 0 108.836 48.824 108.836 108.836v51.414h30v-51.414c0-76.554-62.281-138.836-138.836-138.836z" fill="#4a696f"/><path d="m164.174 485.415h78.533l23-36.165-23-41.485h-78.533z" fill="#00c6ce"/><path d="m242.707 407.765h78.533v77.65h-78.533z" fill="#00959b"/><path d="m189.707 189.25v128h33.147l19.853-15.442 21-53.558-21-43.558-19.853-15.442z" fill="#ffe370"/><path d="m305.139 253.25-62.432-48.558v97.116z" fill="#ffc373"/><path d="m102.732 159.35c-56.44 0-102.358 45.918-102.358 102.358s45.918 102.358 102.358 102.358c9.302 0 18.695-1.328 27.92-3.945l10.905-3.095v-190.637l-10.906-3.094c-9.225-2.618-18.619-3.945-27.919-3.945z" fill="#00ddc0"/><path d="m382.682 159.35c-9.3 0-18.694 1.327-27.919 3.944l-10.906 3.094v190.638l10.905 3.095c9.225 2.618 18.619 3.945 27.92 3.945 56.44 0 102.358-45.918 102.358-102.358s-45.917-102.358-102.358-102.358z" fill="#00c6ce"/></g></svg>