<svg height="512" viewBox="0 0 512 512" width="512" xmlns="http://www.w3.org/2000/svg"><g id="_23" data-name="23"><path d="m355.38 209.63a10 10 0 0 0 -10 10v74.77a89.38 89.38 0 0 1 -178.76 0v-74.77a10 10 0 0 0 -20 0v74.77a109.52 109.52 0 0 0 99.38 108.91v46.13h-30a10 10 0 0 0 0 20h80a10 10 0 0 0 0-20h-30v-46.13a109.52 109.52 0 0 0 99.38-108.91v-74.77a10 10 0 0 0 -10-10z" fill="#14a36d"/><path d="m186.62 170h138.76a0 0 0 0 1 0 0v124.4a69.38 69.38 0 0 1 -69.38 69.38 69.38 69.38 0 0 1 -69.38-69.38v-124.4a0 0 0 0 1 0 0z" fill="#15be79"/><circle cx="256" cy="209.63" fill="#14a36d" r="19.59"/><rect fill="#7063ce" height="10" rx="5" width="158.76" x="176.62" y="160.04"/><path d="m256 39.45a69.38 69.38 0 0 1 69.38 69.38v51.17a0 0 0 0 1 0 0h-138.76a0 0 0 0 1 0 0v-51.17a69.38 69.38 0 0 1 69.38-69.38z" fill="#57409b"/><g fill="#6052a3"><path d="m256 79.74a5 5 0 0 1 5 5v75.26a0 0 0 0 1 0 0h-10a0 0 0 0 1 0 0v-75.26a5 5 0 0 1 5-5z"/><path d="m221 160h-10v-55.3a5 5 0 0 1 5-5 5 5 0 0 1 5 5z"/><path d="m301 160h-10v-55.3a5 5 0 0 1 5-5 5 5 0 0 1 5 5z"/></g></g></svg>